STARTFONT 2.1
FONT -FontForge-Futura Md BT-Book-R-Normal--48-460-75-75-P-269-ISO10646-1
SIZE 46 75 75
FONTBOUNDINGBOX 46 50 -1 -12
COMMENT "Generated by fontforge, http://fontforge.sourceforge.net"
COMMENT "Copyright 1990-1993 Bitstream Inc.  All rights reserved."
STARTPROPERTIES 39
FOUNDRY "FontForge"
FAMILY_NAME "Futura Md BT"
WEIGHT_NAME "Book"
SLANT "R"
SETWIDTH_NAME "Normal"
ADD_STYLE_NAME ""
PIXEL_SIZE 48
POINT_SIZE 460
RESOLUTION_X 75
RESOLUTION_Y 75
SPACING "P"
AVERAGE_WIDTH 269
CHARSET_REGISTRY "ISO10646"
CHARSET_ENCODING "1"
FONTNAME_REGISTRY ""
CHARSET_COLLECTIONS "ISO10646-1"
FONT_NAME "FuturaBT-Medium"
FACE_NAME "Futura Medium BT"
COPYRIGHT "Copyright 1990-1993 Bitstream Inc.  All rights reserved."
FONT_VERSION "mfgpctt-v1.52 Tuesday, January 12, 1993 3:32:04 pm (EST)"
FONT_ASCENT 38
FONT_DESCENT 10
UNDERLINE_POSITION -7
UNDERLINE_THICKNESS 4
X_HEIGHT 21
CAP_HEIGHT 33
RAW_ASCENT 799
RAW_DESCENT 200
RELATIVE_WEIGHT 40
RELATIVE_SETWIDTH 50
SUPERSCRIPT_X 0
SUPERSCRIPT_Y 13
SUPERSCRIPT_SIZE 28
SUBSCRIPT_X 0
SUBSCRIPT_Y -10
SUBSCRIPT_SIZE 28
FIGURE_WIDTH 29
AVG_LOWERCASE_WIDTH 241
AVG_UPPERCASE_WIDTH 308
ENDPROPERTIES
CHARS 96
STARTCHAR exclam
ENCODING 33
SWIDTH 329 0
DWIDTH 16 0
BBX 5 34 5 0
BITMAP
F8
F8
F8
F8
F8
F8
F8
F8
F8
F8
F8
F8
F8
F8
F8
F8
F8
F8
F8
F8
F8
F8
F8
F8
F8
F8
00
00
00
70
F8
F8
F8
70
ENDCHAR
STARTCHAR quotedbl
ENCODING 34
SWIDTH 313 0
DWIDTH 15 0
BBX 11 13 2 21
BITMAP
F1E0
F1E0
F1E0
F1E0
F1E0
F1E0
F1E0
F1E0
F1E0
F1E0
F1E0
F1E0
F1E0
ENDCHAR
STARTCHAR numbersign
ENCODING 35
SWIDTH 769 0
DWIDTH 37 0
BBX 34 34 2 0
BITMAP
0000F03E00
0001F03C00
0001E07C00
0003E07800
0003E07800
0003C0F800
0007C0F000
0007C1F000
000781F000
000F81E000
0FFFFFFFC0
0FFFFFFF80
0FFFFFFF80
1FFFFFFF80
003E078000
003E078000
003C0F8000
007C0F0000
007C0F0000
00781F0000
7FFFFFFE00
7FFFFFFC00
7FFFFFFC00
FFFFFFFC00
01E07C0000
01E07C0000
03E0780000
03C0F80000
07C0F00000
07C0F00000
0781F00000
0F81E00000
0F03E00000
1F03E00000
ENDCHAR
STARTCHAR dollar
ENCODING 36
SWIDTH 604 0
DWIDTH 29 0
BBX 22 42 3 -4
BITMAP
001800
001800
001800
00FF00
03FFC0
0FFFE0
1FFFF0
3FDBF8
3F18F0
7E1840
7C1800
7C1800
7C1800
7E1800
7F1800
3F9800
3FF800
1FFC00
0FFE00
07FF80
01FFC0
007FF0
001FF0
001FF8
0019F8
0018FC
0018FC
00187C
00187C
10187C
78187C
F818F8
FC18F8
FF1BF8
7FFFF0
3FFFE0
0FFF80
01FE00
001800
001800
001800
001800
ENDCHAR
STARTCHAR percent
ENCODING 37
SWIDTH 791 0
DWIDTH 38 0
BBX 35 35 1 0
BITMAP
07C0003800
1FF0007000
3FF800F000
7C7C00E000
783C01E000
F01E01C000
F01E038000
F01E038000
F01E070000
F01E0F0000
F01E0E0000
F01E1E0000
F01E1C0000
783C380000
7C7C380000
3FF8700000
1FF0F00000
07E0E07C00
0001E1FF00
0001C3FF80
000387C7C0
00038783C0
00070F01E0
000F0F01E0
000E0F01E0
001E0F01E0
001C0F01E0
003C0F01E0
00380F01E0
00700F01E0
00F00783C0
00E007C7C0
01E003FF80
01C001FF00
03C0007C00
ENDCHAR
STARTCHAR ampersand
ENCODING 38
SWIDTH 670 0
DWIDTH 32 0
BBX 30 35 1 0
BITMAP
007F0000
01FFC000
03FFE000
07FFF000
07E3F000
0FC1F800
0F80F800
0F80F800
0F80F800
0F80F800
0FC1F000
07E3F000
07F7E000
03FFC000
03FF8000
01FF0000
03FE0000
0FFF0000
1FFF0000
3FDF8040
3F0FC060
7E07E0F0
7C03F1F8
F801FBF0
F800FFE0
F8007FC0
F8003F80
FC007F80
FE00FF80
7F03FFC0
7FFFFFE0
3FFFFFE0
1FFFF3F0
0FFFC3F8
01FE01FC
ENDCHAR
STARTCHAR quotesingle
ENCODING 39
SWIDTH 163 0
DWIDTH 8 0
BBX 4 13 2 21
BITMAP
F0
F0
F0
F0
F0
F0
F0
F0
F0
F0
F0
F0
F0
ENDCHAR
STARTCHAR parenleft
ENCODING 40
SWIDTH 303 0
DWIDTH 15 0
BBX 9 46 4 -12
BITMAP
0600
0F80
0F00
1F00
1E00
1E00
3E00
3C00
3C00
3C00
7800
7800
7800
7800
7800
F000
F000
F000
F000
F000
F000
F000
F000
F000
F000
F000
F000
F000
F000
F000
F000
7800
7800
7800
7800
7800
3C00
3C00
3C00
3E00
1E00
1E00
0F00
0F00
0F80
0600
ENDCHAR
STARTCHAR parenright
ENCODING 41
SWIDTH 303 0
DWIDTH 15 0
BBX 9 46 1 -12
BITMAP
3000
F800
7800
7800
3C00
3C00
3E00
1E00
1E00
1E00
0F00
0F00
0F00
0F00
0F00
0F80
0780
0780
0780
0780
0780
0780
0780
0780
0780
0780
0780
0780
0780
0780
0780
0F00
0F00
0F00
0F00
0F00
1E00
1E00
1E00
3E00
3C00
3C00
7800
7800
F800
3000
ENDCHAR
STARTCHAR asterisk
ENCODING 42
SWIDTH 439 0
DWIDTH 21 0
BBX 15 16 2 18
BITMAP
0380
0380
4384
638C
FBBE
7FFC
3FF8
0FE0
0FE0
1FF8
7FFC
FBBE
638C
4388
0380
0380
ENDCHAR
STARTCHAR plus
ENCODING 43
SWIDTH 833 0
DWIDTH 40 0
BBX 28 28 6 0
BITMAP
000F0000
000F0000
000F0000
000F0000
000F0000
000F0000
000F0000
000F0000
000F0000
000F0000
000F0000
000F0000
FFFFFFF0
FFFFFFF0
FFFFFFF0
FFFFFFF0
000F0000
000F0000
000F0000
000F0000
000F0000
000F0000
000F0000
000F0000
000F0000
000F0000
000F0000
000F0000
ENDCHAR
STARTCHAR comma
ENCODING 44
SWIDTH 301 0
DWIDTH 14 0
BBX 9 14 3 -8
BITMAP
0C00
0F00
0F80
1F00
1F00
1E00
3E00
3C00
3C00
7800
7800
F000
F000
2000
ENDCHAR
STARTCHAR hyphen
ENCODING 45
SWIDTH 404 0
DWIDTH 19 0
BBX 13 5 3 9
BITMAP
FFF8
FFF8
FFF8
FFF8
FFF8
ENDCHAR
STARTCHAR period
ENCODING 46
SWIDTH 301 0
DWIDTH 14 0
BBX 5 5 4 0
BITMAP
70
F8
F8
F8
70
ENDCHAR
STARTCHAR slash
ENCODING 47
SWIDTH 433 0
DWIDTH 21 0
BBX 21 40 0 -6
BITMAP
000078
0000F0
0000F0
0001F0
0001E0
0001E0
0003C0
0003C0
000780
000780
000780
000F00
000F00
001E00
001E00
003C00
003C00
003C00
007800
007800
00F000
00F000
01E000
01E000
01E000
03C000
03C000
078000
078000
0F0000
0F0000
0F0000
1E0000
1E0000
3C0000
3C0000
7C0000
780000
780000
F00000
ENDCHAR
STARTCHAR zero
ENCODING 48
SWIDTH 604 0
DWIDTH 29 0
BBX 25 35 2 0
BITMAP
007F0000
01FFC000
07FFF000
0FFFF800
1FC1FC00
1F007C00
3F007E00
3E003E00
7C001F00
7C001F00
7C001F00
FC001F00
F8000F80
F8000F80
F8000F80
F8000F80
F8000F80
F8000F80
F8000F80
F8000F80
F8000F80
F8000F80
F8000F80
7C001F80
7C001F00
7C001F00
7C001F00
3E003E00
3F007E00
1F007C00
1FC1FC00
0FFFF800
07FFF000
01FFC000
007F0000
ENDCHAR
STARTCHAR one
ENCODING 49
SWIDTH 604 0
DWIDTH 29 0
BBX 12 34 6 0
BITMAP
3FF0
7FF0
7FF0
FFF0
01F0
01F0
01F0
01F0
01F0
01F0
01F0
01F0
01F0
01F0
01F0
01F0
01F0
01F0
01F0
01F0
01F0
01F0
01F0
01F0
01F0
01F0
01F0
01F0
01F0
01F0
01F0
01F0
01F0
01F0
ENDCHAR
STARTCHAR two
ENCODING 50
SWIDTH 604 0
DWIDTH 29 0
BBX 23 35 1 0
BITMAP
00FF00
03FFE0
0FFFF0
1FFFF8
1F81FC
3F00FC
3E007E
7E003E
7C003E
7C003E
00003E
00003E
00003E
00007C
00007C
0000FC
0001F8
0001F8
0003F0
0007E0
000FE0
001FC0
001F80
003F00
007F00
00FE00
01FC00
03F800
03F000
07E000
0FC000
1FFFFE
3FFFFE
7FFFFE
FFFFFE
ENDCHAR
STARTCHAR three
ENCODING 51
SWIDTH 604 0
DWIDTH 29 0
BBX 23 35 2 0
BITMAP
00FF00
07FFC0
0FFFE0
1FFFF0
3F83F8
3F00F8
3E00FC
7C007C
7C007C
00007C
00007C
00007C
0000FC
0001F8
0003F8
003FF0
003FE0
003FC0
003FF0
0003F8
0000FC
00007C
00003E
00003E
00003E
F8003E
F8003E
F8003E
7C007E
7E00FC
3F03FC
3FFFF8
1FFFF0
07FFC0
01FE00
ENDCHAR
STARTCHAR four
ENCODING 52
SWIDTH 604 0
DWIDTH 29 0
BBX 26 34 1 0
BITMAP
00000C00
00001C00
00001C00
00003C00
00007C00
0000FC00
0000FC00
0001FC00
0003FC00
0007FC00
0007FC00
000FFC00
001F7C00
001F7C00
003E7C00
007C7C00
00FC7C00
00F87C00
01F07C00
03E07C00
07E07C00
07C07C00
0F807C00
1F007C00
1FFFFFC0
3FFFFFC0
7FFFFFC0
FFFFFFC0
00007C00
00007C00
00007C00
00007C00
00007C00
00007C00
ENDCHAR
STARTCHAR five
ENCODING 53
SWIDTH 604 0
DWIDTH 29 0
BBX 24 34 2 0
BITMAP
03FFFE
03FFFE
03FFFE
07FFFE
07C000
078000
078000
0F8000
0F8000
0F0000
0F0000
1F3F80
1FFFE0
1FFFF0
1FFFF8
3E03FC
3800FE
30007E
00003F
00003F
00001F
00001F
00001F
00001F
00001F
00003F
10003E
38007E
7C00FC
FF03FC
7FFFF8
3FFFE0
0FFFC0
03FE00
ENDCHAR
STARTCHAR six
ENCODING 54
SWIDTH 604 0
DWIDTH 29 0
BBX 24 36 3 0
BITMAP
000300
0007C0
0007E0
000FC0
001F80
003F00
007E00
00FC00
00F800
01F000
03F000
03E000
07C000
0FBF80
0FFFE0
1FFFF0
1FFFF8
3F81FC
3F007E
7E003E
7C003E
F8001F
F8001F
F8001F
F8001F
F8001F
F8001F
F8001F
7C003E
7E007E
7E00FC
3F81FC
1FFFF8
0FFFF0
07FFC0
00FF00
ENDCHAR
STARTCHAR seven
ENCODING 55
SWIDTH 604 0
DWIDTH 29 0
BBX 24 34 4 0
BITMAP
FFFFFF
FFFFFE
FFFFFE
FFFFFC
0000FC
0001F8
0001F8
0003F0
0003F0
0007E0
0007E0
000FC0
000FC0
001F80
001F80
001F00
003E00
003E00
007C00
007C00
00F800
00F800
01F000
01F000
03E000
03E000
07C000
07C000
0F8000
0F8000
1F0000
1F0000
3E0000
1E0000
ENDCHAR
STARTCHAR eight
ENCODING 56
SWIDTH 604 0
DWIDTH 29 0
BBX 24 35 2 0
BITMAP
00FF00
03FFC0
0FFFF0
1FFFF8
3F81FC
3F00FC
7E007E
7C003E
7C003E
7C003E
7C003E
7C003E
7E007E
3F00FC
3F81FC
1FFFF8
07FFF0
07FFF0
1FFFF8
3F81FC
7E007E
7C003E
F8001F
F8001F
F8001F
F8001F
F8001F
F8001F
FC003F
7E007E
7F81FE
3FFFFC
1FFFF8
07FFE0
00FF00
ENDCHAR
STARTCHAR nine
ENCODING 57
SWIDTH 604 0
DWIDTH 29 0
BBX 24 35 2 0
BITMAP
00FF00
03FFE0
0FFFF0
1FFFF8
3F81FC
3F007E
7E007E
7C003E
F8001F
F8001F
F8001F
F8001F
F8001F
F8001F
F8003F
FC003E
7C007E
7E00FE
3F81FC
1FFFFC
0FFFF8
07FFF8
01FDF0
0003E0
0003E0
0007C0
000F80
001F80
003F00
007E00
007C00
00F800
01F000
03E000
07C000
ENDCHAR
STARTCHAR colon
ENCODING 58
SWIDTH 329 0
DWIDTH 16 0
BBX 5 22 5 0
BITMAP
70
F8
F8
F8
70
00
00
00
00
00
00
00
00
00
00
00
00
70
F8
F8
F8
70
ENDCHAR
STARTCHAR semicolon
ENCODING 59
SWIDTH 329 0
DWIDTH 16 0
BBX 10 30 3 -8
BITMAP
0380
07C0
07C0
07C0
0380
0000
0000
0000
0000
0000
0000
0000
0000
0000
0000
0000
0400
0780
0F80
0F00
0F00
1E00
1E00
3E00
3C00
7C00
7800
7800
F000
3000
ENDCHAR
STARTCHAR less
ENCODING 60
SWIDTH 833 0
DWIDTH 40 0
BBX 28 26 6 1
BITMAP
00000010
000000F0
000003F0
00001FF0
00007FE0
0003FF80
000FFC00
007FF000
01FF8000
0FFE0000
3FF00000
FFC00000
FE000000
FE000000
FFC00000
3FF00000
0FFE0000
01FF8000
007FF000
000FFC00
0003FF80
00007FE0
00001FF0
000003F0
000000F0
00000010
ENDCHAR
STARTCHAR equal
ENCODING 61
SWIDTH 833 0
DWIDTH 40 0
BBX 28 14 6 7
BITMAP
FFFFFFF0
FFFFFFF0
FFFFFFF0
FFFFFFF0
00000000
00000000
00000000
00000000
00000000
00000000
FFFFFFF0
FFFFFFF0
FFFFFFF0
FFFFFFF0
ENDCHAR
STARTCHAR greater
ENCODING 62
SWIDTH 833 0
DWIDTH 40 0
BBX 28 26 6 1
BITMAP
80000000
F0000000
FC000000
FF800000
7FE00000
1FFC0000
03FF0000
00FFE000
001FF800
0007FF00
0000FFC0
00003FF0
000007F0
000007F0
00003FF0
0000FFC0
0007FF00
001FF800
00FFE000
03FF0000
1FFC0000
7FE00000
FF800000
FC000000
F0000000
80000000
ENDCHAR
STARTCHAR question
ENCODING 63
SWIDTH 543 0
DWIDTH 26 0
BBX 17 35 5 0
BITMAP
07F000
1FFC00
3FFE00
7FFF00
7C1F00
F80F80
F00780
F00780
F00780
000F80
001F80
007F00
03FE00
0FFC00
1FF000
3FC000
7F0000
7E0000
F80000
F00000
F00F00
F00F00
F81F00
FC3F00
7FFE00
3FFE00
1FF800
07E000
000000
000000
070000
0F8000
0F8000
0F8000
070000
ENDCHAR
STARTCHAR at
ENCODING 64
SWIDTH 1000 0
DWIDTH 48 0
BBX 43 42 2 -7
BITMAP
00003FF80000
0001FFFF0000
000FFFFFC000
001FE00FF000
007E0001F800
00F800007C00
01F000003E00
03E000001F00
07C000000F80
0F8000000780
1F00000003C0
1E001F0003C0
3E007FCF03E0
3C01FFEF01E0
7C03F0FE01E0
7803C07E01E0
7807803E01E0
780F803E01E0
F00F003C01E0
F00F003C01E0
F01E003C03E0
F01E007C03C0
F01E007803C0
F01E007807C0
F01E00780780
F01E00F80F80
F01E00F81F00
781F01F83E00
780F87FCFC00
780FFF7FF800
3C07FE3FF000
3C01F81F8000
1E0000000000
1F0000000000
0F8000001000
07C000003800
03E00000F800
01F80003F000
00FF803FE000
003FFFFF8000
000FFFFC0000
0000FFE00000
ENDCHAR
STARTCHAR A
ENCODING 65
SWIDTH 662 0
DWIDTH 32 0
BBX 33 34 -1 0
BITMAP
0000800000
0000800000
0001C00000
0001C00000
0003E00000
0003E00000
0007F00000
0007F00000
000FF80000
000FF80000
000FFC0000
001F7C0000
001F3E0000
003F3E0000
003E3F0000
007E1F0000
007C1F8000
00FC0F8000
00F80FC000
01F807C000
01F007E000
03FFFFE000
03FFFFE000
07FFFFF000
07FFFFF000
0FFFFFF800
0FC000F800
1F8000FC00
1F80007C00
3F00007E00
3F00003E00
7E00003F00
7E00003F00
FC00001F80
ENDCHAR
STARTCHAR B
ENCODING 66
SWIDTH 576 0
DWIDTH 28 0
BBX 22 34 4 0
BITMAP
FFFC00
FFFF00
FFFFC0
FFFFC0
FFFFE0
F80FE0
F803F0
F801F0
F801F0
F801F0
F801F0
F801F0
F803E0
F80FE0
FFFFC0
FFFF80
FFFFC0
FFFFE0
FFFFF0
F807F8
F801F8
F800FC
F8007C
F8007C
F8007C
F8007C
F800FC
F801FC
F807F8
FFFFF8
FFFFF0
FFFFE0
FFFFC0
FFFE00
ENDCHAR
STARTCHAR C
ENCODING 67
SWIDTH 717 0
DWIDTH 34 0
BBX 29 35 2 0
BITMAP
0003FC00
003FFF80
00FFFFE0
01FFFFF0
03FFFFF8
07FC03F8
0FE00078
1FC00018
3F800008
3F000000
7E000000
7C000000
7C000000
FC000000
F8000000
F8000000
F8000000
F8000000
F8000000
F8000000
F8000000
FC000000
7C000000
7C000000
7E000000
3F000000
3F800008
1FC00038
0FE000F8
07FC07F8
03FFFFF8
01FFFFF8
00FFFFF0
003FFFC0
0003FE00
ENDCHAR
STARTCHAR D
ENCODING 68
SWIDTH 740 0
DWIDTH 36 0
BBX 29 34 4 0
BITMAP
FFFF0000
FFFFF000
FFFFFC00
FFFFFE00
FFFFFF00
F800FF80
F8001FC0
F8000FE0
F80007E0
F80003F0
F80001F0
F80001F0
F80001F8
F80000F8
F80000F8
F80000F8
F80000F8
F80000F8
F80000F8
F80000F8
F80000F8
F80001F8
F80001F0
F80001F0
F80003F0
F80007E0
F8000FE0
F8001FC0
F800FF80
FFFFFF00
FFFFFE00
FFFFFC00
FFFFF000
FFFF0000
ENDCHAR
STARTCHAR E
ENCODING 69
SWIDTH 532 0
DWIDTH 26 0
BBX 19 34 4 0
BITMAP
FFFFE0
FFFFE0
FFFFE0
FFFFE0
FFFFE0
F80000
F80000
F80000
F80000
F80000
F80000
F80000
F80000
FFFFE0
FFFFE0
FFFFE0
FFFFE0
FFFFE0
F80000
F80000
F80000
F80000
F80000
F80000
F80000
F80000
F80000
F80000
F80000
FFFFE0
FFFFE0
FFFFE0
FFFFE0
FFFFE0
ENDCHAR
STARTCHAR F
ENCODING 70
SWIDTH 524 0
DWIDTH 25 0
BBX 19 34 4 0
BITMAP
FFFFE0
FFFFE0
FFFFE0
FFFFE0
FFFFE0
F80000
F80000
F80000
F80000
F80000
F80000
F80000
F80000
FFFFE0
FFFFE0
FFFFE0
FFFFE0
FFFFE0
F80000
F80000
F80000
F80000
F80000
F80000
F80000
F80000
F80000
F80000
F80000
F80000
F80000
F80000
F80000
F80000
ENDCHAR
STARTCHAR G
ENCODING 71
SWIDTH 803 0
DWIDTH 39 0
BBX 34 35 2 0
BITMAP
0003FE0000
003FFF8000
00FFFFE000
01FFFFF800
03FFFFFC00
07FC03FE00
0FE000FC00
1FC0003800
3F80001000
3F00000000
7E00000000
7C00000000
7C00000000
FC00000000
F800000000
F800000000
F800000000
F8000FFFC0
F8000FFFC0
F8000FFFC0
F8000FFFC0
FC000FFFC0
7C000007C0
7C000007C0
7E000007C0
3F00000F80
3F80000F80
1FC0001F00
0FF0007F00
0FFC01FE00
07FFFFFC00
01FFFFF800
00FFFFF000
003FFFC000
0007FE0000
ENDCHAR
STARTCHAR H
ENCODING 72
SWIDTH 748 0
DWIDTH 36 0
BBX 28 34 4 0
BITMAP
F80001F0
F80001F0
F80001F0
F80001F0
F80001F0
F80001F0
F80001F0
F80001F0
F80001F0
F80001F0
F80001F0
F80001F0
F80001F0
FFFFFFF0
FFFFFFF0
FFFFFFF0
FFFFFFF0
FFFFFFF0
F80001F0
F80001F0
F80001F0
F80001F0
F80001F0
F80001F0
F80001F0
F80001F0
F80001F0
F80001F0
F80001F0
F80001F0
F80001F0
F80001F0
F80001F0
F80001F0
ENDCHAR
STARTCHAR I
ENCODING 73
SWIDTH 285 0
DWIDTH 14 0
BBX 5 34 4 0
BITMAP
F8
F8
F8
F8
F8
F8
F8
F8
F8
F8
F8
F8
F8
F8
F8
F8
F8
F8
F8
F8
F8
F8
F8
F8
F8
F8
F8
F8
F8
F8
F8
F8
F8
F8
ENDCHAR
STARTCHAR J
ENCODING 74
SWIDTH 394 0
DWIDTH 19 0
BBX 15 34 0 0
BITMAP
003E
003E
003E
003E
003E
003E
003E
003E
003E
003E
003E
003E
003E
003E
003E
003E
003E
003E
003E
003E
003E
003E
003E
003E
003E
003E
003E
103E
387E
7FFE
FFFC
7FFC
3FF8
0FE0
ENDCHAR
STARTCHAR K
ENCODING 75
SWIDTH 620 0
DWIDTH 30 0
BBX 26 34 4 0
BITMAP
F8007F00
F800FE00
F801FC00
F803F800
F807F000
F807E000
F80FC000
F81FC000
F83F8000
F87F0000
F8FE0000
F9FC0000
FBF80000
FBF00000
FFE00000
FFE00000
FFF00000
FBF80000
FBF80000
F9FC0000
F8FE0000
F87F0000
F83F8000
F83F8000
F81FC000
F80FE000
F807F000
F803F800
F803FC00
F801FC00
F800FE00
F8007F00
F8003F80
F8003FC0
ENDCHAR
STARTCHAR L
ENCODING 76
SWIDTH 470 0
DWIDTH 23 0
BBX 18 34 4 0
BITMAP
F80000
F80000
F80000
F80000
F80000
F80000
F80000
F80000
F80000
F80000
F80000
F80000
F80000
F80000
F80000
F80000
F80000
F80000
F80000
F80000
F80000
F80000
F80000
F80000
F80000
F80000
F80000
F80000
F80000
FFFFC0
FFFFC0
FFFFC0
FFFFC0
FFFFC0
ENDCHAR
STARTCHAR M
ENCODING 77
SWIDTH 862 0
DWIDTH 41 0
BBX 40 34 1 0
BITMAP
0100000100
0080000100
0180000100
01C0000380
01C0000380
01E0000780
01E0000780
03F0000FC0
03F0000FC0
03F8001FC0
03F8001FC0
07FC003FE0
07FC003FE0
07FE007FE0
07BE007DE0
0FBF00FDF0
0F9F00FDF0
0F9F81F9F0
0F8F81F9F0
1F0FC3F1F0
1F07C3E0F8
1F07E7E0F8
1F03E7C0F8
3F03E7C0F8
3E01FF807C
3E01FF807C
3E00FF007C
3E00FF007C
7C007E003E
7C003C003E
7C003C003E
7C0018003E
F80018003F
F80010001F
ENDCHAR
STARTCHAR N
ENCODING 78
SWIDTH 803 0
DWIDTH 39 0
BBX 31 35 4 0
BITMAP
80000000
C000003E
E000003E
F000003E
F800003E
FC00003E
FE00003E
FF00003E
FF80003E
FFC0003E
FFE0003E
FFF0003E
FBFC003E
F9FE003E
F8FF003E
F87F803E
F83FC03E
F81FE03E
F80FF03E
F807F83E
F803FC3E
F800FE3E
F8007F3E
F8003FBE
F8001FFE
F8000FFE
F80007FE
F80003FE
F80000FE
F800007E
F800003E
F800001E
F800000E
F8000006
F8000002
ENDCHAR
STARTCHAR O
ENCODING 79
SWIDTH 866 0
DWIDTH 42 0
BBX 37 35 2 0
BITMAP
0003FE0000
001FFFC000
007FFFF000
01FFFFFC00
03FFFFFE00
07FE03FF00
0FF0007F80
1FC0001FC0
1F80000FC0
3F000007E0
7E000003E0
7E000003F0
7C000001F0
FC000001F8
F8000000F8
F8000000F8
F8000000F8
F8000000F8
F8000000F8
F8000000F8
F8000000F8
FC000001F8
7C000001F0
7E000003F0
7E000003E0
3F000007E0
1F80000FC0
1FC0001FC0
0FF0007F80
07FE03FF00
03FFFFFE00
01FFFFFC00
007FFFF000
001FFFC000
0003FE0000
ENDCHAR
STARTCHAR P
ENCODING 80
SWIDTH 532 0
DWIDTH 26 0
BBX 20 34 4 0
BITMAP
FFFC00
FFFF00
FFFF80
FFFFC0
FFFFE0
F80FE0
F803F0
F801F0
F801F0
F801F0
F801F0
F801F0
F803F0
F80FE0
FFFFE0
FFFFC0
FFFF80
FFFF00
FFFC00
F80000
F80000
F80000
F80000
F80000
F80000
F80000
F80000
F80000
F80000
F80000
F80000
F80000
F80000
F80000
ENDCHAR
STARTCHAR Q
ENCODING 81
SWIDTH 866 0
DWIDTH 42 0
BBX 39 37 2 -2
BITMAP
0003FE0000
001FFFC000
007FFFF000
01FFFFFC00
03FFFFFE00
07FE03FF00
0FF0007F80
1FC0001FC0
1F80000FC0
3F000007E0
7E000003E0
7E000003F0
7C000001F0
FC000001F8
F8000000F8
F8000000F8
F8000000F8
F8000000F8
F8000000F8
F8000000F8
F8000000F8
FC000001F8
7C003F81F0
7E001FC3F0
3E000FE3F0
3F0007FFE0
1F8003FFE0
1FC001FFC0
0FF000FFC0
07FE03FF80
03FFFFFF80
01FFFFFFC0
007FFFFFE0
001FFFE7F0
0003FE03F8
00000001FC
00000000FE
ENDCHAR
STARTCHAR R
ENCODING 82
SWIDTH 560 0
DWIDTH 27 0
BBX 24 34 4 0
BITMAP
FFF800
FFFF00
FFFF80
FFFFC0
FFFFE0
F80FE0
F803F0
F801F0
F801F0
F801F0
F801F0
F801F0
F803F0
F80FE0
FFFFE0
FFFFC0
FFFF80
FFFE00
FFF800
FBF000
F9F800
F8F800
F87C00
F83E00
F83F00
F81F80
F80FC0
F807C0
F803E0
F803F0
F801F8
F800FC
F8007E
F8003F
ENDCHAR
STARTCHAR S
ENCODING 83
SWIDTH 548 0
DWIDTH 26 0
BBX 22 35 1 0
BITMAP
00FE00
07FFC0
0FFFE0
1FFFF0
3FFFF0
3F83F8
7E00F0
7C0040
7C0000
7C0000
7C0000
7E0000
3F8000
3FC000
1FF800
0FFE00
07FF80
01FFC0
007FE0
001FF0
0007F8
0001F8
0000FC
00007C
00007C
10007C
78007C
F800FC
FC00F8
FF03F8
7FFFF0
3FFFF0
1FFFE0
0FFF80
03FC00
ENDCHAR
STARTCHAR T
ENCODING 84
SWIDTH 508 0
DWIDTH 24 0
BBX 23 34 1 0
BITMAP
FFFFFE
FFFFFE
FFFFFE
FFFFFE
FFFFFE
007C00
007C00
007C00
007C00
007C00
007C00
007C00
007C00
007C00
007C00
007C00
007C00
007C00
007C00
007C00
007C00
007C00
007C00
007C00
007C00
007C00
007C00
007C00
007C00
007C00
007C00
007C00
007C00
007C00
ENDCHAR
STARTCHAR U
ENCODING 85
SWIDTH 744 0
DWIDTH 36 0
BBX 28 34 4 0
BITMAP
F80001F0
F80001F0
F80001F0
F80001F0
F80001F0
F80001F0
F80001F0
F80001F0
F80001F0
F80001F0
F80001F0
F80001F0
F80001F0
F80001F0
F80001F0
F80001F0
F80001F0
F80001F0
F80001F0
F80001F0
F80001F0
F80001F0
F80001F0
F80001F0
FC0003F0
7C0003E0
7E0007E0
7F000FE0
3FC03FC0
3FFFFFC0
1FFFFF80
0FFFFE00
03FFFC00
007FE000
ENDCHAR
STARTCHAR V
ENCODING 86
SWIDTH 618 0
DWIDTH 30 0
BBX 31 34 0 0
BITMAP
FC00007E
7C0000FC
7E0000FC
3E0000F8
3E0001F8
3F0001F0
1F0003F0
1F8003F0
0F8007E0
0FC007E0
07C00FC0
07C00FC0
03E00F80
03E01F80
01F01F00
01F03F00
01F83E00
00F87E00
00FC7C00
007C7C00
007CFC00
003EF800
003EF800
001FF000
001FF000
001FE000
000FE000
000FC000
0007C000
00078000
00038000
00030000
00010000
00010000
ENDCHAR
STARTCHAR W
ENCODING 87
SWIDTH 938 0
DWIDTH 45 0
BBX 45 34 0 0
BITMAP
FC00020001F8
7C00020001F0
7C00060001F0
7E00070003F0
3E000F0003E0
3E000F8007E0
3F000F8007C0
1F001F8007C0
1F801FC00FC0
0F803FC00F80
0F803FE00F80
0FC03FE01F80
07C07DF01F00
07C07DF03F00
03E0F9F03E00
03E0F8F83E00
03F0F0F87E00
01F1F07C7C00
01F1F07C7C00
01F9E03CF800
00FBE03EF800
00FBC03EF800
007FC01FF000
007FC01FF000
007F800FE000
003F800FE000
003F0007E000
001F0007C000
001E0007C000
001E0003C000
000E00038000
000C00018000
000C00010000
000800010000
ENDCHAR
STARTCHAR X
ENCODING 88
SWIDTH 571 0
DWIDTH 27 0
BBX 28 34 0 0
BITMAP
7E0007E0
3F000FC0
1F000F80
1F801F80
0FC03F00
0FC03F00
07E07E00
03F0FC00
03F0FC00
01F9F800
00F9F000
00FFF000
007FE000
007FC000
003FC000
001F8000
001F8000
003FC000
003FC000
007FE000
00FFF000
00FBF000
01F9F800
01F1F800
03F0FC00
07E0FE00
07E07E00
0FC03F00
1F803F80
1F801F80
3F001FC0
3E000FC0
7E0007E0
FC0007F0
ENDCHAR
STARTCHAR Y
ENCODING 89
SWIDTH 592 0
DWIDTH 28 0
BBX 29 34 0 0
BITMAP
FC0001F8
7E0003F0
3F0003E0
3F0007E0
1F800FC0
0F800F80
0FC01F80
07E03F00
03E03E00
03F07E00
01F87C00
01F8FC00
00FDF800
007DF000
007FF000
003FE000
001FC000
001FC000
000F8000
000F8000
000F8000
000F8000
000F8000
000F8000
000F8000
000F8000
000F8000
000F8000
000F8000
000F8000
000F8000
000F8000
000F8000
000F8000
ENDCHAR
STARTCHAR Z
ENCODING 90
SWIDTH 576 0
DWIDTH 28 0
BBX 26 34 1 0
BITMAP
1FFFFFC0
1FFFFF80
1FFFFF00
1FFFFF00
1FFFFE00
00007E00
0000FC00
0000F800
0001F800
0001F000
0003F000
0007E000
0007C000
000FC000
000F8000
001F8000
003F0000
003E0000
007E0000
007C0000
00FC0000
01F80000
01F80000
03F00000
03E00000
07E00000
0FC00000
0FC00000
1F800000
1FFFFFC0
3FFFFFC0
7FFFFFC0
7FFFFFC0
FFFFFFC0
ENDCHAR
STARTCHAR bracketleft
ENCODING 91
SWIDTH 303 0
DWIDTH 15 0
BBX 9 45 5 -11
BITMAP
FF80
FF80
FF80
FF80
F000
F000
F000
F000
F000
F000
F000
F000
F000
F000
F000
F000
F000
F000
F000
F000
F000
F000
F000
F000
F000
F000
F000
F000
F000
F000
F000
F000
F000
F000
F000
F000
F000
F000
F000
F000
F000
FF80
FF80
FF80
FF80
ENDCHAR
STARTCHAR backslash
ENCODING 92
SWIDTH 433 0
DWIDTH 21 0
BBX 21 40 0 -6
BITMAP
F00000
780000
780000
7C0000
3C0000
3C0000
1E0000
1E0000
0F0000
0F0000
0F0000
078000
078000
03C000
03C000
01E000
01E000
01E000
00F000
00F000
007800
007800
003C00
003C00
003C00
001E00
001E00
000F00
000F00
000780
000780
000780
0003C0
0003C0
0001E0
0001E0
0001F0
0000F0
0000F0
000078
ENDCHAR
STARTCHAR bracketright
ENCODING 93
SWIDTH 303 0
DWIDTH 15 0
BBX 9 45 1 -11
BITMAP
FF80
FF80
FF80
FF80
0780
0780
0780
0780
0780
0780
0780
0780
0780
0780
0780
0780
0780
0780
0780
0780
0780
0780
0780
0780
0780
0780
0780
0780
0780
0780
0780
0780
0780
0780
0780
0780
0780
0780
0780
0780
0780
FF80
FF80
FF80
FF80
ENDCHAR
STARTCHAR asciicircum
ENCODING 94
SWIDTH 1000 0
DWIDTH 48 0
BBX 28 13 10 21
BITMAP
001F8000
003FC000
007FE000
00FFF000
01F9F800
01F0F800
03E07C00
07C03E00
0F801F00
1F000F80
3E0007C0
7C0003E0
F80001F0
ENDCHAR
STARTCHAR underscore
ENCODING 95
SWIDTH 500 0
DWIDTH 24 0
BBX 24 4 0 -11
BITMAP
FFFFFF
FFFFFF
FFFFFF
FFFFFF
ENDCHAR
STARTCHAR grave
ENCODING 96
SWIDTH 500 0
DWIDTH 24 0
BBX 10 6 6 26
BITMAP
FC00
3E00
1E00
0F00
0780
03C0
ENDCHAR
STARTCHAR a
ENCODING 97
SWIDTH 582 0
DWIDTH 28 0
BBX 23 23 2 0
BITMAP
01FC00
07FF3E
1FFFBE
1FFFFE
3F83FE
7E00FE
7C007E
FC007E
F8003E
F8003E
F8003E
F8003E
F8003E
F8003E
F8003E
FC007E
7C007E
7E00FE
3F83FE
3FFFFE
1FFFBE
07FF3E
01FC3E
ENDCHAR
STARTCHAR b
ENCODING 98
SWIDTH 582 0
DWIDTH 28 0
BBX 23 36 4 0
BITMAP
F80000
F80000
F80000
F80000
F80000
F80000
F80000
F80000
F80000
F80000
F80000
F80000
F80000
F87F00
F9FFC0
FBFFF0
FFFFF0
FF83F8
FE00FC
FC007C
FC007C
F8003E
F8003E
F8003E
F8003E
F8003E
F8003E
F8003E
FC007E
FC007C
FE00FC
FF83F8
FFFFF8
FBFFF0
F9FFC0
F87F00
ENDCHAR
STARTCHAR c
ENCODING 99
SWIDTH 454 0
DWIDTH 22 0
BBX 18 23 2 0
BITMAP
00FF00
03FFC0
0FFFC0
1FFFC0
3F81C0
7E00C0
7C0040
7C0000
F80000
F80000
F80000
F80000
F80000
F80000
F80000
7C0000
7C0040
7E0040
3F81C0
1FFFC0
0FFFC0
07FF80
00FE00
ENDCHAR
STARTCHAR d
ENCODING 100
SWIDTH 582 0
DWIDTH 28 0
BBX 23 36 2 0
BITMAP
00003E
00003E
00003E
00003E
00003E
00003E
00003E
00003E
00003E
00003E
00003E
00003E
00003E
01FC3E
07FF3E
1FFFBE
1FFFFE
3F83FE
7E00FE
7C007E
FC007E
F8003E
F8003E
F8003E
F8003E
F8003E
F8003E
F8003E
FC007E
7C007E
7E00FE
3F83FE
3FFFFE
1FFFBE
07FF3E
01FC3E
ENDCHAR
STARTCHAR e
ENCODING 101
SWIDTH 556 0
DWIDTH 27 0
BBX 24 23 2 0
BITMAP
00FF00
03FFC0
0FFFE0
1FFFF0
3F83F8
7F00FC
7E007C
7C007C
FC003E
F8003E
FFFFFE
FFFFFE
FFFFFE
F80000
F80000
7C0010
7C003C
7E007F
3F81FE
1FFFFC
0FFFF8
03FFE0
00FF00
ENDCHAR
STARTCHAR f
ENCODING 102
SWIDTH 306 0
DWIDTH 15 0
BBX 15 36 0 0
BITMAP
00FE
03FE
07FE
07FE
0FE2
0FC0
0F80
0F80
0F80
0F80
0F80
0F80
0F80
0F80
FFFC
FFFC
FFFC
FFFC
0F80
0F80
0F80
0F80
0F80
0F80
0F80
0F80
0F80
0F80
0F80
0F80
0F80
0F80
0F80
0F80
0F80
0F80
ENDCHAR
STARTCHAR g
ENCODING 103
SWIDTH 582 0
DWIDTH 28 0
BBX 23 33 2 -10
BITMAP
01FC00
07FF3E
1FFFBE
1FFFFE
3F83FE
7E00FE
7C007E
FC007E
F8003E
F8003E
F8003E
F8003E
F8003E
F8003E
F8003E
FC007E
7C007E
7E00FE
3F83FE
3FFFFE
1FFFBE
07FF3E
01FC3E
00003E
00003E
7C007E
7E007C
7E00FC
3F81FC
3FFFF8
1FFFF0
07FFE0
01FF00
ENDCHAR
STARTCHAR h
ENCODING 104
SWIDTH 587 0
DWIDTH 28 0
BBX 21 36 4 0
BITMAP
F80000
F80000
F80000
F80000
F80000
F80000
F80000
F80000
F80000
F80000
F80000
F80000
F80000
F87F80
F9FFC0
FBFFF0
FFFFF0
FF83F8
FE01F8
FC01F8
FC00F8
F800F8
F800F8
F800F8
F800F8
F800F8
F800F8
F800F8
F800F8
F800F8
F800F8
F800F8
F800F8
F800F8
F800F8
F800F8
ENDCHAR
STARTCHAR i
ENCODING 105
SWIDTH 262 0
DWIDTH 13 0
BBX 6 34 4 0
BITMAP
78
FC
FC
FC
FC
78
00
00
00
00
00
00
F8
F8
F8
F8
F8
F8
F8
F8
F8
F8
F8
F8
F8
F8
F8
F8
F8
F8
F8
F8
F8
F8
ENDCHAR
STARTCHAR j
ENCODING 106
SWIDTH 262 0
DWIDTH 13 0
BBX 6 44 4 -10
BITMAP
78
FC
FC
FC
FC
78
00
00
00
00
00
00
F8
F8
F8
F8
F8
F8
F8
F8
F8
F8
F8
F8
F8
F8
F8
F8
F8
F8
F8
F8
F8
F8
F8
F8
F8
F8
F8
F8
F8
F8
F8
F8
ENDCHAR
STARTCHAR k
ENCODING 107
SWIDTH 516 0
DWIDTH 25 0
BBX 22 36 4 0
BITMAP
F80000
F80000
F80000
F80000
F80000
F80000
F80000
F80000
F80000
F80000
F80000
F80000
F80000
F80000
F803F8
F807E0
F80FC0
F81F80
F83F00
F87E00
F8FC00
F9F800
FBF000
FFE000
FFE000
FBF000
F9F800
F8FC00
F8FE00
F87F00
F83F80
F81FC0
F80FE0
F807F0
F803F8
F801FC
ENDCHAR
STARTCHAR l
ENCODING 108
SWIDTH 262 0
DWIDTH 13 0
BBX 5 36 4 0
BITMAP
F8
F8
F8
F8
F8
F8
F8
F8
F8
F8
F8
F8
F8
F8
F8
F8
F8
F8
F8
F8
F8
F8
F8
F8
F8
F8
F8
F8
F8
F8
F8
F8
F8
F8
F8
F8
ENDCHAR
STARTCHAR m
ENCODING 109
SWIDTH 875 0
DWIDTH 42 0
BBX 35 23 4 0
BITMAP
007F00FE00
F9FFC3FF80
FBFFE7FFC0
FFFFEFFFC0
FF07FE0FE0
FE03FC07E0
FC03F807E0
F801F803E0
F801F003E0
F801F003E0
F801F003E0
F801F003E0
F801F003E0
F801F003E0
F801F003E0
F801F003E0
F801F003E0
F801F003E0
F801F003E0
F801F003E0
F801F003E0
F801F003E0
F801F003E0
ENDCHAR
STARTCHAR n
ENCODING 110
SWIDTH 587 0
DWIDTH 28 0
BBX 21 23 4 0
BITMAP
007F80
F9FFC0
FBFFF0
FFFFF0
FF83F8
FE01F8
FC01F8
FC00F8
F800F8
F800F8
F800F8
F800F8
F800F8
F800F8
F800F8
F800F8
F800F8
F800F8
F800F8
F800F8
F800F8
F800F8
F800F8
ENDCHAR
STARTCHAR o
ENCODING 111
SWIDTH 587 0
DWIDTH 28 0
BBX 24 23 2 0
BITMAP
00FF00
03FFC0
0FFFE0
1FFFF8
3F81FC
3F00FC
7E007E
7C003E
FC003F
F8001F
F8001F
F8001F
F8001F
F8001F
FC003F
7C003E
7E007E
3F00FC
3F81FC
1FFFF8
07FFE0
03FFC0
00FE00
ENDCHAR
STARTCHAR p
ENCODING 112
SWIDTH 582 0
DWIDTH 28 0
BBX 23 33 4 -10
BITMAP
007F00
F9FFC0
FBFFF0
FFFFF0
FF83F8
FE00FC
FC007C
FC007C
F8003E
F8003E
F8003E
F8003E
F8003E
F8003E
F8003E
FC007E
FC007C
FE00FC
FF83F8
FFFFF8
FBFFF0
F9FFC0
F87F00
F80000
F80000
F80000
F80000
F80000
F80000
F80000
F80000
F80000
F80000
ENDCHAR
STARTCHAR q
ENCODING 113
SWIDTH 582 0
DWIDTH 28 0
BBX 23 33 2 -10
BITMAP
01FC00
07FF3E
1FFFBE
1FFFFE
3F83FE
7E00FE
7C007E
FC007E
F8003E
F8003E
F8003E
F8003E
F8003E
F8003E
F8003E
FC007E
7C007E
7E00FE
3F83FE
3FFFFE
1FFFBE
07FF3E
01FC3E
00003E
00003E
00003E
00003E
00003E
00003E
00003E
00003E
00003E
00003E
ENDCHAR
STARTCHAR r
ENCODING 114
SWIDTH 368 0
DWIDTH 18 0
BBX 15 23 4 0
BITMAP
00F8
F9FE
FBFC
FFFC
FF08
FE00
FC00
FC00
F800
F800
F800
F800
F800
F800
F800
F800
F800
F800
F800
F800
F800
F800
F800
ENDCHAR
STARTCHAR s
ENCODING 115
SWIDTH 425 0
DWIDTH 20 0
BBX 18 23 1 0
BITMAP
03F800
0FFE00
1FFF00
3FFF80
7E0F00
7C0400
7C0000
7E0000
7F0000
3FE000
1FFC00
0FFE00
01FF80
007F80
000FC0
0007C0
1007C0
7807C0
FC0FC0
7FFF80
3FFF00
1FFE00
07F800
ENDCHAR
STARTCHAR t
ENCODING 116
SWIDTH 303 0
DWIDTH 15 0
BBX 13 30 1 0
BITMAP
0F80
0F80
0F80
0F80
0F80
0F80
0F80
0F80
FFF8
FFF8
FFF8
FFF8
0F80
0F80
0F80
0F80
0F80
0F80
0F80
0F80
0F80
0F80
0F80
0F80
0F80
0F80
0F80
0F80
0F80
0F80
ENDCHAR
STARTCHAR u
ENCODING 117
SWIDTH 587 0
DWIDTH 28 0
BBX 21 22 4 0
BITMAP
F800F8
F800F8
F800F8
F800F8
F800F8
F800F8
F800F8
F800F8
F800F8
F800F8
F800F8
F800F8
F800F8
F800F8
F800F8
7C01F0
7C01F0
7F07F0
3FFFE0
1FFFC0
0FFF80
03FE00
ENDCHAR
STARTCHAR v
ENCODING 118
SWIDTH 472 0
DWIDTH 23 0
BBX 23 22 0 0
BITMAP
F8007E
7C007C
7C00FC
3E00F8
3E01F8
1F01F0
1F01F0
0F83E0
0F83E0
0787C0
07C780
03CF80
03EF00
01EF00
01FE00
00FE00
007C00
007C00
003800
003800
001000
001000
ENDCHAR
STARTCHAR w
ENCODING 119
SWIDTH 750 0
DWIDTH 36 0
BBX 36 22 0 0
BITMAP
F8004003F0
7C006003E0
7C00E003E0
3E00F007C0
3E01F007C0
1F01F80F80
1F03F80F80
0F83FC1F00
0F87BC1F00
0787BE3E00
07CF9E3E00
03CF1F7C00
03EF0F7C00
01FE0F7800
01FE077000
00FC07F000
00FC03E000
007803E000
007801C000
003001C000
0030008000
0020008000
ENDCHAR
STARTCHAR x
ENCODING 120
SWIDTH 453 0
DWIDTH 22 0
BBX 23 22 -1 0
BITMAP
3F00FC
1F00F8
0F81F0
0FC3F0
07C3E0
03E7C0
03FFC0
01FF80
00FF00
007E00
007E00
00FF00
01FF80
03FF80
03E7C0
07E7E0
0FC3E0
1F81F0
1F81F8
3F00F8
7E007C
FC007E
ENDCHAR
STARTCHAR y
ENCODING 121
SWIDTH 471 0
DWIDTH 23 0
BBX 23 32 0 -10
BITMAP
FC007E
7C007C
7C00FC
7E00F8
3E01F8
3E01F0
1F01F0
1F03E0
1F83E0
0F87C0
0F87C0
07CF80
07CF80
07DF00
03DF00
03FE00
01FE00
01FC00
01FC00
00F800
00F800
01F000
01F000
03E000
03E000
07C000
07C000
0F8000
0F8000
1F0000
1F0000
3E0000
ENDCHAR
STARTCHAR z
ENCODING 122
SWIDTH 449 0
DWIDTH 22 0
BBX 21 22 0 0
BITMAP
7FFFF8
7FFFF0
7FFFE0
7FFFE0
000FC0
001F80
001F80
003F00
007E00
007C00
00FC00
01F800
01F000
03F000
07E000
07C000
0FC000
1F8000
3FFFF8
3FFFF8
7FFFF8
FFFFF8
ENDCHAR
STARTCHAR braceleft
ENCODING 123
SWIDTH 500 0
DWIDTH 24 0
BBX 16 44 4 -9
BITMAP
003F
00FF
01FF
03FF
03F0
03E0
03E0
03E0
03E0
03E0
03E0
03E0
03E0
03E0
03E0
03E0
03E0
07E0
07E0
0FC0
FF80
FF00
FF00
FF80
0FC0
07E0
07E0
03E0
03E0
03E0
03E0
03E0
03E0
03E0
03E0
03E0
03E0
03E0
03F0
03F0
03FF
01FF
00FF
003F
ENDCHAR
STARTCHAR bar
ENCODING 124
SWIDTH 500 0
DWIDTH 24 0
BBX 4 48 10 -11
BITMAP
F0
F0
F0
F0
F0
F0
F0
F0
F0
F0
F0
F0
F0
F0
F0
F0
F0
F0
F0
F0
F0
F0
F0
F0
F0
F0
F0
F0
F0
F0
F0
F0
F0
F0
F0
F0
F0
F0
F0
F0
F0
F0
F0
F0
F0
F0
F0
F0
ENDCHAR
STARTCHAR braceright
ENCODING 125
SWIDTH 500 0
DWIDTH 24 0
BBX 16 44 4 -9
BITMAP
FC00
FF00
FF80
FFC0
0FC0
0FC0
07C0
07C0
07C0
07C0
07C0
07C0
07C0
07C0
07C0
07C0
07C0
07C0
07E0
03F0
01FF
00FF
00FF
01FF
03F0
07E0
07C0
07C0
07C0
07C0
07C0
07C0
07C0
07C0
07C0
07C0
07C0
07C0
0FC0
0FC0
FFC0
FF80
FF00
FC00
ENDCHAR
STARTCHAR asciitilde
ENCODING 126
SWIDTH 833 0
DWIDTH 40 0
BBX 32 8 4 10
BITMAP
03F80003
1FFF8007
7FFFF03F
FFFFFFFF
FC07FFFE
F000FFF8
C0001FE0
80000000
ENDCHAR
STARTCHAR nonbreakingspace
ENCODING 160
SWIDTH 604 0
DWIDTH 29 0
BBX 1 1 0 0
BITMAP
00
ENDCHAR
STARTCHAR degree
ENCODING 176
SWIDTH 329 0
DWIDTH 16 0
BBX 14 14 1 20
BITMAP
0FC0
1FE0
3FF0
7878
F03C
E01C
E01C
E01C
E01C
F03C
7878
3FF0
1FE0
0FC0
ENDCHAR
ENDFONT
